# xmcd
#
# Track frame offsets:
#	150
#	20800
#	40575
#	59675
#	78663
#	97613
#	119918
#	137363
#	160850
#	179288
#
# Disc length: 2600 seconds
#
# Revision: 4
# Processed by: cddbd v1.5PL3 Copyright (c) Steve Scherf et al.
# Submitted via: EasyCDDAExtractor 6.0.0.1
#
DISCID=800a260a
DTITLE=張清芳 - 無人熟識
DYEAR=1996
DGENRE=Country
TTITLE0=無人熟識
TTITLE1=他們的愛情
TTITLE2=偷走你的心
TTITLE3=惜惜我的心肝
TTITLE4=深深愛著你
TTITLE5=好好照顧你甲已
TTITLE6=這甘是戀愛
TTITLE7=貪戀
TTITLE8=猶原有夢
TTITLE9=愛甲半休死
EXTD=
EXTT0=
EXTT1=
EXTT2=
EXTT3=
EXTT4=
EXTT5=
EXTT6=
EXTT7=
EXTT8=
EXTT9=
PLAYORDER=
